<mxfile host="app.diagrams.net" modified="2022-05-01T21:23:00.760Z" agent="5.0 (Windows NT 10.0; Win64; x64) AppleWebKit/537.36 (KHTML, like Gecko) Chrome/100.0.4896.127 Safari/537.36" etag="TFK5cRwr5ZPBtsLn_rYr" version="17.5.0" type="github">
  <diagram id="hzcIvPIWOvKIrLmMlHXU" name="Page-1">
    <mxGraphModel dx="1481" dy="739" grid="1" gridSize="10" guides="1" tooltips="1" connect="1" arrows="1" fold="1" page="1" pageScale="1" pageWidth="850" pageHeight="1100" math="1" shadow="0">
      <root>
        <mxCell id="0" />
        <mxCell id="1" parent="0" />
        <mxCell id="XDfcKsaxqU180ZU7r_jc-1" value="&lt;font style=&quot;font-size: 40px&quot; color=&quot;#0000c4&quot;&gt;$$\frac{\partial STRANUT}{\partial ORGASM}$$&lt;/font&gt;" style="text;html=1;align=center;verticalAlign=middle;resizable=0;points=[];autosize=1;strokeColor=none;fillColor=none;" parent="1" vertex="1">
          <mxGeometry x="-210" y="200" width="860" height="30" as="geometry" />
        </mxCell>
        <mxCell id="XDfcKsaxqU180ZU7r_jc-2" value="Publish&lt;br&gt;without COMMENTS&lt;br&gt;or EDITS ?" style="text;html=1;align=center;verticalAlign=middle;resizable=0;points=[];autosize=1;strokeColor=none;fillColor=none;fontSize=40;fontColor=#0000C4;" parent="1" vertex="1">
          <mxGeometry x="15" y="325" width="390" height="150" as="geometry" />
        </mxCell>
        <mxCell id="XDfcKsaxqU180ZU7r_jc-3" value="&lt;font style=&quot;font-size: 20px&quot;&gt;12h15m REMAINING&lt;/font&gt;" style="text;html=1;align=center;verticalAlign=middle;resizable=0;points=[];autosize=1;strokeColor=none;fillColor=none;fontSize=40;fontColor=#0000C4;" parent="1" vertex="1">
          <mxGeometry x="105" y="460" width="210" height="60" as="geometry" />
        </mxCell>
        <mxCell id="XDfcKsaxqU180ZU7r_jc-4" value="" style="endArrow=none;html=1;rounded=0;fontSize=20;fontColor=#0000C4;strokeColor=#0000C4;entryX=0.823;entryY=0.993;entryDx=0;entryDy=0;entryPerimeter=0;" parent="1" target="XDfcKsaxqU180ZU7r_jc-2" edge="1">
          <mxGeometry width="50" height="50" relative="1" as="geometry">
            <mxPoint x="80" y="475" as="sourcePoint" />
            <mxPoint x="250" y="475" as="targetPoint" />
          </mxGeometry>
        </mxCell>
        <mxCell id="XDfcKsaxqU180ZU7r_jc-5" value="" style="endArrow=none;html=1;rounded=0;fontSize=20;fontColor=#0000C4;strokeColor=#0000C4;" parent="1" edge="1">
          <mxGeometry width="50" height="50" relative="1" as="geometry">
            <mxPoint x="280" y="350" as="sourcePoint" />
            <mxPoint x="340" y="350" as="targetPoint" />
          </mxGeometry>
        </mxCell>
        <mxCell id="XDfcKsaxqU180ZU7r_jc-6" value="" style="endArrow=none;html=1;rounded=0;fontSize=20;fontColor=#0000C4;strokeColor=#0000C4;" parent="1" edge="1">
          <mxGeometry width="50" height="50" relative="1" as="geometry">
            <mxPoint x="280" y="355" as="sourcePoint" />
            <mxPoint x="340" y="355" as="targetPoint" />
          </mxGeometry>
        </mxCell>
        <mxCell id="XDfcKsaxqU180ZU7r_jc-7" value="" style="endArrow=none;html=1;rounded=0;fontSize=20;fontColor=#0000C4;strokeColor=#0000C4;" parent="1" edge="1">
          <mxGeometry width="50" height="50" relative="1" as="geometry">
            <mxPoint x="280" y="360" as="sourcePoint" />
            <mxPoint x="340" y="360" as="targetPoint" />
          </mxGeometry>
        </mxCell>
        <mxCell id="XDfcKsaxqU180ZU7r_jc-8" value="" style="endArrow=none;html=1;rounded=0;fontSize=20;fontColor=#0000C4;strokeColor=#0000C4;" parent="1" edge="1">
          <mxGeometry width="50" height="50" relative="1" as="geometry">
            <mxPoint x="280" y="365" as="sourcePoint" />
            <mxPoint x="340" y="365" as="targetPoint" />
          </mxGeometry>
        </mxCell>
        <mxCell id="XDfcKsaxqU180ZU7r_jc-9" value="" style="endArrow=none;dashed=1;html=1;rounded=0;fontSize=20;fontColor=#0000C4;strokeColor=#0000C4;" parent="1" edge="1">
          <mxGeometry width="50" height="50" relative="1" as="geometry">
            <mxPoint x="60" y="310" as="sourcePoint" />
            <mxPoint x="400" y="310" as="targetPoint" />
          </mxGeometry>
        </mxCell>
        <mxCell id="XDfcKsaxqU180ZU7r_jc-10" value="&lt;font style=&quot;font-size: 60px&quot;&gt;TURNUL,&lt;br&gt;PIATA&lt;br&gt;si RETEAUA&lt;br&gt;&lt;/font&gt;" style="text;html=1;align=center;verticalAlign=middle;resizable=0;points=[];autosize=1;strokeColor=none;fillColor=none;fontSize=20;fontColor=#0000C4;" parent="1" vertex="1">
          <mxGeometry x="480" y="270" width="360" height="120" as="geometry" />
        </mxCell>
        <mxCell id="XDfcKsaxqU180ZU7r_jc-11" value="&lt;font style=&quot;font-size: 30px ; line-height: 0.9&quot;&gt;STAPANUL,&lt;br&gt;MAGAZIONERUL&lt;br&gt;SI LABORATUL&lt;br&gt;MINAND&lt;br&gt;IMPREUNA in&amp;nbsp;&lt;br&gt;RETEA pentru a&lt;br&gt;ADUCE LUCRURI NOI in PIATA&lt;/font&gt;" style="text;html=1;align=center;verticalAlign=middle;resizable=0;points=[];autosize=1;strokeColor=none;fillColor=none;fontSize=60;fontColor=#0000C4;" parent="1" vertex="1">
          <mxGeometry x="890" y="145" width="450" height="510" as="geometry" />
        </mxCell>
      </root>
    </mxGraphModel>
  </diagram>
</mxfile>
